<svg xmlns="http://www.w3.org/2000/svg" viewBox="0 0 96 96">
  <ellipse cx="48" cy="84" rx="32" ry="7" fill="#120a04" opacity=".3"/>
  <path d="M18 36h60l-10 9H28z" fill="#241914"/>
  <path d="M33 23h30l7 14H26z" fill="#4b3120"/>
  <circle cx="48" cy="49" r="16" fill="#b9784c"/>
  <path d="M33 49h30v8c-8 5-22 5-30 0z" fill="#3b2417"/>
  <path d="M26 63h44l10 24H16z" fill="#57351f"/>
  <path d="M28 68L9 78l6 9 24-12z" fill="#b9784c"/>
  <path d="M68 68l19 10-6 9-24-12z" fill="#b9784c"/>
  <path d="M40 87H29v-9h11zm27 0H56v-9h11z" fill="#241914"/>
  <path d="M38 64h20l5 11H33z" fill="#e4b84a"/>
</svg>

