<svg xmlns="http://www.w3.org/2000/svg" viewBox="0 0 96 96">
  <ellipse cx="48" cy="84" rx="28" ry="6" fill="#120a04" opacity=".28"/>
  <path d="M20 35h56l-7 8H27z" fill="#241914"/>
  <path d="M35 24h26l6 12H29z" fill="#4b3120"/>
  <circle cx="48" cy="48" r="14" fill="#d49a64"/>
  <path d="M34 47h28v7c-6 5-22 5-28 0z" fill="#8d3f2b"/>
  <path d="M32 62h32l8 23H24z" fill="#6f4a2d"/>
  <path d="M34 67l-20 4 2 9 25-4z" fill="#d49a64"/>
  <path d="M62 67l20 4-2 9-25-4z" fill="#d49a64"/>
  <rect x="9" y="68" width="18" height="5" rx="2" fill="#241914"/>
  <rect x="69" y="68" width="18" height="5" rx="2" fill="#241914"/>
  <path d="M40 85h-9v-8h9zm25 0h-9v-8h9z" fill="#241914"/>
</svg>

