<svg xmlns="http://www.w3.org/2000/svg" viewBox="0 0 96 96">
  <ellipse cx="48" cy="84" rx="28" ry="6" fill="#120a04" opacity=".28"/>
  <path d="M23 34h50l-8 9H31z" fill="#3b2417"/>
  <path d="M34 25h28l5 12H29z" fill="#6f4a2d"/>
  <circle cx="48" cy="47" r="15" fill="#c98b55"/>
  <path d="M34 46c6 5 22 5 28 0v9c-7 6-21 6-28 0z" fill="#3b2417"/>
  <path d="M30 62h36l8 22H22z" fill="#2f6f3f"/>
  <path d="M38 62h20l-3 22H41z" fill="#f5df9b"/>
  <path d="M30 67l-15 10 5 8 19-11z" fill="#c98b55"/>
  <path d="M66 67l15 10-5 8-19-11z" fill="#c98b55"/>
  <path d="M46 66l4-7 4 7-4 8z" fill="#e4b84a"/>
  <circle cx="50" cy="70" r="5" fill="#e4b84a"/>
  <path d="M40 85h-9v-8h9zm25 0h-9v-8h9z" fill="#241914"/>
</svg>

