<svg xmlns="http://www.w3.org/2000/svg" viewBox="0 0 96 96">
  <ellipse cx="48" cy="84" rx="28" ry="6" fill="#120a04" opacity=".28"/>
  <path d="M25 35h46l-8 8H33z" fill="#3b2417"/>
  <path d="M36 24h24l5 12H31z" fill="#f5df9b"/>
  <circle cx="48" cy="48" r="14" fill="#c98b55"/>
  <path d="M34 48h28v7c-7 5-21 5-28 0z" fill="#4b3120"/>
  <path d="M30 62h36l7 23H23z" fill="#f5df9b"/>
  <rect x="44" y="65" width="8" height="18" fill="#8d3f2b"/>
  <rect x="39" y="70" width="18" height="8" fill="#8d3f2b"/>
  <path d="M30 67l-16 11 5 8 18-12z" fill="#c98b55"/>
  <path d="M66 67l16 11-5 8-18-12z" fill="#c98b55"/>
  <path d="M40 85h-9v-8h9zm25 0h-9v-8h9z" fill="#241914"/>
</svg>

