<svg xmlns="http://www.w3.org/2000/svg" viewBox="0 0 96 96">
  <ellipse cx="48" cy="84" rx="28" ry="6" fill="#120a04" opacity=".28"/>
  <path d="M22 36h52l-9 8H31z" fill="#241914"/>
  <path d="M35 24h26l6 13H29z" fill="#8d3f2b"/>
  <circle cx="48" cy="48" r="14" fill="#b9784c"/>
  <path d="M34 47h28v8c-7 4-21 4-28 0z" fill="#8d3f2b"/>
  <path d="M30 62h36l8 23H22z" fill="#4b3120"/>
  <path d="M31 67l-18 8 4 8 21-9z" fill="#b9784c"/>
  <path d="M65 67l18 8-4 8-21-9z" fill="#b9784c"/>
  <rect x="72" y="70" width="19" height="5" rx="2" fill="#241914"/>
  <path d="M40 85h-9v-8h9zm25 0h-9v-8h9z" fill="#241914"/>
</svg>

